# xmcd
#
# Track frame offsets: 
#        150
#        12101
#        28415
#        39795
#        51896
#        64963
#        77019
#        94851
#        108324
#        121151
#        136021
#        150165
#        162578
#        176080
#        187050
#        199257
#        215363
#        229222
#        241917
#        253121
#        265458
#        276962
#        291348
#        303817
#
# Disc length: 4223 seconds
#
# Revision: 3
# Processed by: cddbd v1.5.2PL0 Copyright (c) Steve Scherf et al.
# Submitted via: ExactAudioCopyFreeDBPlugin 1.0
#
DISCID=55107d18
DTITLE=Various Artist - Holland Dozier Holland:  The Complete 45s Col
DTITLE=lection (Invictus, Hot Wax, Music Merchant), 1969-1977 [Harmles
DTITLE=s box set]
DYEAR=2014
DGENRE=Soul
TTITLE0=Glass House - Crumbs Off the Table
TTITLE1=New Play - The Music Box (ft Ruth Copeland)
TTITLE2=Freda Payne - The Unhooked Generation
TTITLE3=The Chairmen of the Board - Give Me Just a Little More Time
TTITLE4=Freda Payne - Band of Gold
TTITLE5=Glass House - I Can't Be You (You Can't Be Me)
TTITLE6=Parliament - Little Ole Country Boy (as "A Parliament Thang")
TTITLE7=The Chairmen of the Board - (You've Got Me) Dangling on a Stri
TTITLE7=ng
TTITLE8=The Chairmen of the Board - Everything's Tuesday
TTITLE9=Freda Payne - Deeper and Deeper
TTITLE10=The Chairmen of the Board - Pay to the Piper
TTITLE11=Glass House - If It Ain't Love (It Don't Matter)
TTITLE12=The Barrino Brothers - Trapped in a Love
TTITLE13=The Barrino Brothers - I Shall Not Be Moved
TTITLE14=Freda Payne - Cherish What Is Dear to You (Whilst It's Near t
TTITLE14=o You)
TTITLE15=The Chairmen of the Board - Chairman of the Board
TTITLE16=The 8th Day - She's Not Just Another Woman
TTITLE17=Ruth Copeland - Hare Krishna
TTITLE18=The Chairmen of the Board - Hanging on to a Memory
TTITLE19=Glass House - Touch Me Jesus
TTITLE20=Parliament - Red Hot Mama
TTITLE21=Freda Payne - Bring the Boys Home
TTITLE22=General Johnson - I'm in Love Darling
TTITLE23=Lucifer - Old Mother Nature
EXTD=
EXTT0=
EXTT1=
EXTT2=
EXTT3=
EXTT4=
EXTT5=
EXTT6=
EXTT7=
EXTT8=
EXTT9=
EXTT10=
EXTT11=
EXTT12=
EXTT13=
EXTT14=
EXTT15=
EXTT16=
EXTT17=
EXTT18=
EXTT19=
EXTT20=
EXTT21=
EXTT22=
EXTT23=
PLAYORDER=
